<?xml version="1.0" standalone="no"?>
<!DOCTYPE svg PUBLIC "-//W3C//DTD SVG 20010904//EN"
 "http://www.w3.org/TR/2001/REC-SVG-20010904/DTD/svg10.dtd">
<svg version="1.0" xmlns="http://www.w3.org/2000/svg"
 width="500.000000pt" height="165.000000pt" viewBox="0 0 500.000000 165.000000"
 preserveAspectRatio="xMidYMid meet">

<g transform="translate(0.000000,165.000000) scale(0.100000,-0.100000)"
fill="#000000" stroke="none">
<path d="M1325 1362 c-171 -59 -280 -198 -292 -371 -10 -136 32 -245 128 -336
136 -129 314 -155 486 -70 120 59 199 169 224 310 34 197 -95 405 -289 465
-80 25 -189 26 -257 2z m187 -61 c125 -48 244 -170 290 -298 30 -82 30 -191
-1 -261 -37 -83 -117 -140 -217 -157 -106 -17 -264 47 -363 146 -120 120 -170
286 -126 420 22 65 93 139 156 162 61 23 186 17 261 -12z"/>
<path d="M4256 1319 c-15 -34 -24 -64 -21 -67 3 -3 5 1 5 9 1 22 15 -7 101
-204 60 -136 74 -176 57 -161 -13 11 -10 4 8 -17 27 -31 134 -261 134 -287 0
-6 -7 -18 -16 -26 -25 -25 8 -20 35 5 28 27 44 67 36 96 -5 21 -302 703 -309
710 -2 2 -15 -24 -30 -58z"/>
<path d="M396 1333 c-18 -38 -18 -38 2 -20 39 35 107 47 269 47 129 0 155 -2
160 -15 6 -16 -4 -31 -296 -463 -160 -238 -169 -257 -130 -306 24 -31 56 -38
38 -8 -10 16 19 65 215 353 237 349 246 367 211 416 -15 22 -15 22 37 26 29 2
-69 4 -218 5 l-270 2 -18 -37z"/>
<path d="M2055 1361 c63 -5 68 -7 48 -19 -46 -26 -48 -38 -53 -405 l-5 -349
-24 -19 c-34 -27 1 -26 40 2 42 29 55 63 63 154 5 64 12 89 36 128 16 26 27
47 24 47 -2 0 -18 -21 -34 -47 l-30 -47 0 241 c0 235 6 288 33 305 7 4 55 8
108 8 113 0 148 -17 189 -90 35 -64 35 -167 0 -230 -28 -49 -80 -90 -117 -90
-13 0 -22 -4 -19 -9 3 -4 -3 -16 -14 -26 -13 -11 -20 -31 -20 -52 0 -30 15
-52 105 -154 58 -65 105 -123 105 -127 0 -4 -5 -13 -12 -20 -9 -9 -8 -12 4
-12 24 0 58 48 58 81 0 22 -24 56 -105 146 -57 65 -105 126 -105 135 0 11 10
20 28 23 104 22 164 61 197 131 36 77 14 184 -52 246 -56 53 -83 58 -310 56
-124 -1 -180 -4 -138 -7z"/>
<path d="M2805 1361 c63 -5 68 -7 48 -19 -46 -26 -48 -38 -53 -405 l-5 -349
-24 -19 c-34 -27 1 -26 40 2 58 41 59 48 59 397 0 334 4 371 43 390 17 8 -1
10 -78 10 -96 -1 -97 -2 -30 -7z"/>
<path d="M3091 1363 l76 -4 -17 -35 c-11 -21 -16 -43 -12 -57 4 -13 123 -179
266 -370 272 -365 296 -390 296 -306 0 37 -12 57 -100 177 -72 98 -100 145
-101 167 -1 26 -2 27 -7 7 -6 -20 -27 4 -154 177 -82 109 -148 206 -148 215 0
8 8 20 18 25 12 8 -13 10 -88 9 -91 -2 -95 -2 -29 -5z"/>
<path d="M3673 1363 c57 -3 76 -7 70 -16 -5 -9 -3 -9 8 -1 8 7 23 14 34 17 11
2 -27 4 -85 4 -88 -1 -93 -2 -27 -4z"/>
<path d="M3710 1315 c-6 -8 -10 -19 -8 -24 1 -6 8 1 15 14 13 28 11 31 -7 10z"/>
<path d="M4136 1035 c-9 -26 -7 -32 5 -12 6 10 9 21 6 23 -2 3 -7 -2 -11 -11z"/>
<path d="M3578 1033 c6 -2 18 -2 25 0 6 3 1 5 -13 5 -14 0 -19 -2 -12 -5z"/>
<path d="M3524 1008 l-19 -23 25 20 c14 11 27 21 29 22 2 2 0 3 -6 3 -5 0 -18
-10 -29 -22z"/>
<path d="M3688 963 c5 -21 7 -23 10 -9 2 10 0 22 -6 28 -6 6 -7 0 -4 -19z"/>
<path d="M4090 839 c-7 -11 -10 -23 -7 -25 2 -2 9 7 15 21 14 30 7 33 -8 4z"/>
<path d="M4071 784 c0 -11 3 -14 6 -6 3 7 2 16 -1 19 -3 4 -6 -2 -5 -13z"/>
<path d="M4071 704 c0 -11 3 -14 6 -6 3 7 2 16 -1 19 -3 4 -6 -2 -5 -13z"/>
<path d="M4090 653 c0 -6 8 -17 18 -24 16 -13 16 -13 2 6 -8 11 -16 22 -17 24
-2 2 -3 0 -3 -6z"/>
<path d="M3128 627 c-3 -19 -2 -25 4 -19 6 6 8 18 6 28 -3 14 -5 12 -10 -9z"/>
<path d="M3945 601 c-16 -20 -22 -30 -12 -22 14 11 17 11 17 0 1 -8 7 1 16 20
8 19 13 35 12 36 -2 1 -16 -14 -33 -34z"/>
<path d="M870 613 c0 -15 -64 -44 -119 -53 -44 -7 -43 -8 26 -9 71 -1 73 -1
88 30 9 17 14 33 11 37 -3 3 -6 1 -6 -5z"/>
<path d="M4140 596 c0 -11 64 -46 85 -46 12 1 5 6 -18 14 -20 8 -44 19 -52 26
-8 7 -15 10 -15 6z"/>
<path d="M3070 560 c-9 -6 -10 -10 -3 -10 6 0 15 5 18 10 8 12 4 12 -15 0z"/>
<path d="M3885 560 c-16 -7 -17 -9 -3 -9 9 -1 20 4 23 9 7 11 7 11 -20 0z"/>
<path d="M1820 236 c0 -2 11 -6 25 -8 13 -3 22 -1 19 3 -5 9 -44 13 -44 5z"/>
<path d="M1995 195 c0 -44 1 -45 30 -44 24 1 25 3 8 6 -19 4 -23 11 -23 44 0
21 -3 39 -7 39 -5 0 -8 -20 -8 -45z"/>
<path d="M2218 230 c30 -12 38 -38 22 -64 -12 -19 -12 -20 3 -7 32 25 9 82
-31 80 -12 0 -10 -3 6 -9z"/>
<path d="M2393 233 c15 -4 18 -12 15 -44 -2 -21 0 -39 4 -39 5 0 8 18 8 39 0
29 5 41 18 44 9 3 -1 5 -23 5 -22 0 -32 -2 -22 -5z"/>
<path d="M2570 195 c0 -25 3 -45 8 -45 4 0 7 20 7 45 0 25 -3 45 -7 45 -5 0
-8 -20 -8 -45z"/>
<path d="M2633 195 c0 -27 2 -38 4 -22 2 15 2 37 0 50 -2 12 -4 0 -4 -28z"/>
<path d="M2778 203 c5 -59 10 -63 11 -10 1 26 -3 47 -7 47 -4 0 -6 -17 -4 -37z"/>
<path d="M2925 195 c0 -25 3 -45 8 -45 4 0 7 15 7 33 l1 32 28 -34 29 -35 3
47 c2 26 1 47 -3 47 -5 0 -8 -15 -8 -32 l-1 -33 -28 33 c-15 17 -29 32 -32 32
-2 0 -4 -20 -4 -45z"/>
<path d="M3180 236 c0 -2 7 -7 16 -10 8 -3 12 -2 9 4 -6 10 -25 14 -25 6z"/>
<path d="M1797 223 c-19 -19 1 -73 27 -73 5 0 2 6 -9 13 -12 10 -16 22 -13 40
6 29 5 31 -5 20z"/>
<path d="M2177 223 c-19 -18 1 -73 26 -73 5 0 1 7 -8 17 -10 9 -15 26 -12 40
5 25 4 27 -6 16z"/>
<path d="M3137 223 c-19 -18 1 -73 26 -73 5 0 1 7 -8 17 -10 9 -15 26 -12 40
5 25 4 27 -6 16z"/>
<path d="M3197 170 c-3 -11 -1 -20 4 -20 5 0 9 9 9 20 0 11 -2 20 -4 20 -2 0
-6 -9 -9 -20z"/>
</g>
</svg>
